Seryozha
(A Summer to Remember) - 1960

Directors: Georgi Daneliya, Igor Talankin

File size : 1.37 GiB 
Duration : 1h 15mn 
Overall bit rate : 2 589 Kbps 
Writing application : VirtualDubModRus 1.5.10.2 (build 2542/release) 
Writing library : VirtualDubMod build 2542/release 

Video 
ID : 0 
Format : MPEG-4 Visual 
Format profile : Advanced Simple@L5 
Format settings, BVOP : 2 
Format settings, QPel : No 
Format settings, GMC : No warppoints 
Format settings, Matrix : Default (MPEG) 
Muxing mode : Packed bitstream 
Codec ID : XVID 
Codec ID/Hint : XviD 
Duration : 1h 15mn 
Bit rate : 2 387 Kbps 
Width : 704 pixels 
Height : 528 pixels 
Display aspect ratio : 4:3 
Frame rate : 25.000 fps 
Color space : YUV 
Chroma subsampling : 4:2:0 
Bit depth : 8 bits 
Scan type : Progressive 
Compression mode : Lossy 
Bits/(Pixel*Frame) : 0.257 
Stream size : 1.26 GiB (92%) 
Writing library : XviD 1.2.1 (UTC 2008-12-04) 

Audio 
ID : 1 
Format : AC-3 
Format/Info : Audio Coding 3 
Mode extension : CM (complete main) 
Format settings, Endianness : Big 
Codec ID : 2000 
Duration : 1h 15mn 
Bit rate mode : Constant 
Bit rate : 192 Kbps 
Channel(s) : 2 channels 
Channel positions : Front: L R 
Sampling rate : 48.0 KHz 
Bit depth : 16 bits 
Compression mode : Lossy 
Stream size : 104 MiB (7%) 
Alignment : Aligned on interleaves 
Interleave, duration : 40 ms (1.00 video frame) 
Interleave, preload duration : 512 ms 